/* XPM */
static char *_509799901695[] = {
/* columns rows colors chars-per-pixel */
"32 32 213 2 ",
"   c #00121F",
".  c #001527",
"X  c #011926",
"o  c #071E2B",
"O  c #0B1F29",
"+  c #0A202E",
"@  c #122328",
"#  c #142528",
"$  c #0E2433",
"%  c #132733",
"&  c #192C30",
"*  c #192C34",
"=  c #1C2E34",
"-  c #313A2B",
";  c #263535",
":  c #283634",
">  c #283635",
",  c #2D3A35",
"<  c #343E36",
"1  c #4F502E",
"2  c #585736",
"3  c #5F5C33",
"4  c #505339",
"5  c #555739",
"6  c #605C33",
"7  c #665639",
"8  c #64563B",
"9  c #66573A",
"0  c #67573A",
"q  c #605F3B",
"w  c #615F3B",
"e  c #655A3F",
"r  c #6F5C38",
"t  c #695C3E",
"y  c #686133",
"u  c #686233",
"i  c #6B6333",
"p  c #61603B",
"a  c #756E38",
"s  c #263944",
"d  c #2C3F4A",
"f  c #2F424C",
"g  c #35464C",
"h  c #3F4448",
"j  c #3F474B",
"k  c #3B4A4B",
"l  c #3C4A4B",
"z  c #3D4A4B",
"x  c #3E484E",
"c  c #3F4B52",
"v  c #3F4C52",
"b  c #3D4E57",
"n  c #3F4E56",
"m  c #3E5059",
"M  c #3D515B",
"N  c #3F505A",
"B  c #3B535F",
"V  c #3C525D",
"C  c #3E525D",
"Z  c #3D525E",
"A  c #3C535E",
"S  c #3D535E",
"D  c #3D535F",
"F  c #3E535E",
"G  c #3D545E",
"H  c #3D545F",
"J  c #2E5069",
"K  c #355163",
"L  c #375162",
"P  c #345064",
"I  c #345165",
"U  c #365265",
"Y  c #355266",
"T  c #3B5360",
"R  c #385262",
"E  c #385363",
"W  c #395363",
"Q  c #3A5362",
"!  c #3B5460",
"~  c #3B5461",
"^  c #3B5462",
"/  c #3C5460",
"(  c #3D5460",
")  c #3C5461",
"_  c #3C5561",
"`  c #3D5561",
"'  c #3F5460",
"]  c #3E5661",
"[  c #3C5562",
"{  c #3D5562",
"}  c #3D5662",
"|  c #3C5663",
" . c #385364",
".. c #395364",
"X. c #3F5764",
"o. c #3E5765",
"O. c #3F5765",
"+. c #3D5666",
"@. c #3D5767",
"#. c #3E5767",
"$. c #3A5966",
"%. c #3C5866",
"&. c #3F5867",
"*. c #3E5869",
"=. c #3E596C",
"-. c #395D6C",
";. c #395D6D",
":. c #3A5D6C",
">. c #325A71",
",. c #375E71",
"<. c #3F5F70",
"1. c #396677",
"2. c #3A6677",
"3. c #3F6774",
"4. c #31617A",
"5. c #31617B",
"6. c #31627B",
"7. c #32627B",
"8. c #3F707F",
"9. c #424141",
"0. c #414548",
"q. c #40494E",
"w. c #434C4E",
"e. c #5E5E4C",
"r. c #4E5B57",
"t. c #40535C",
"y. c #485658",
"u. c #645A40",
"i. c #5C6150",
"p. c #63604B",
"a. c #716543",
"s. c #7A6D44",
"d. c #626B56",
"f. c #405760",
"g. c #40596B",
"h. c #415B6E",
"j. c #405B6F",
"k. c #425C6F",
"l. c #455D6D",
"z. c #455E6D",
"x. c #455E6E",
"c. c #455E6F",
"v. c #455F6F",
"b. c #435D72",
"n. c #465F71",
"m. c #455F72",
"M. c #4D6261",
"N. c #49616E",
"B. c #48616F",
"V. c #4A616F",
"C. c #566A6E",
"Z. c #5B6C6C",
"A. c #5F6F6C",
"S. c #57726B",
"D. c #486170",
"F. c #4A6270",
"G. c #4F6570",
"H. c #64726B",
"J. c #6B7668",
"K. c #6D7868",
"L. c #6C7869",
"P. c #717A67",
"I. c #707968",
"U. c #836F3D",
"Y. c #917737",
"T. c #9E7A32",
"R. c #847240",
"E. c #817943",
"W. c #847B43",
"Q. c #837B4B",
"!. c #7E8056",
"~. c #7F885F",
"^. c #7D8163",
"/. c #7F8B61",
"(. c #7E8C64",
"). c #AF8630",
"_. c #A0863E",
"`. c #8C8044",
"'. c #8F8244",
"]. c #8E8348",
"[. c #938647",
"{. c #92874B",
"}. c #92884B",
"|. c #93884B",
" X c #9D8F4E",
".X c #828A5E",
"XX c #848B5C",
"oX c #8C895B",
"OX c #8F8C5B",
"+X c #938A50",
"@X c #948C53",
"#X c #948B54",
"$X c #968C54",
"%X c #978C54",
"&X c #968D54",
"*X c #968E54",
"=X c #948E5A",
"-X c #A18E45",
";X c #A79A53",
":X c #818461",
">X c #848562",
",X c #818A60",
"<X c #808A61",
"1X c #898860",
"2X c #376F84",
"3X c #3C7384",
"4X c #377288",
"5X c #2E7F9F",
"6X c #3282A0",
"7X c #3987A0",
"8X c #448795",
"9X c #458B98",
"0X c None",
/* pixels */
"0X0X0X0X0X0X0X0X0X0X0X0X0X0X0X0X0X0X0X0X0X0X0X0X0X0X0X0X0X0X0X0X",
"0X0X0X0X0X0X0X0X0X0X0X0X0X0X0X0X0X0X0X0X0X0X0X0X0X0X0X0X0X0X0X0X",
"0X0X0X0X0X0X0X0X0X0X0X0X0X0X0X0X0X0X0X0X0X0X0X0X0X0X0X0X0X0X0X0X",
"0X0X0X0X0X0X0X0X0X0X0X0X0X0X0X0X0X0X0X0X0X0X0X0X0X0X0X0X0X0X0X0X",
"0X0X0X0X0X0X0X  0X0Xo o 0X0Xo 0X0Xo o 0X0Xo 0X0X. s 0X0X0X0X0X0X",
"0X0X0X0X0X0X0XO ; ; > > > > > > > > > ; > > > ; & g 0X0X0X0X0X0X",
"0X0X0X0X0X0X0X6 ;X$X&X&X&X$X&X&X&X&X$X&X&X&X&X&X-Xg 0X0X0X0X0X0X",
"0X0X0X0X0X0X0Xi J.b.l.l.l.l.l.l.n.l.n.l.l.l.n.n.}.l 0X0X0X0X0X0X",
"0X0X0X0X0X0X0Xy K.#.B B ` ` Z B n x h j B ` ! N.{.k 0X0X0X0X0X0X",
"0X0X0X0X0X0X0Xi I.#./ ` ` ` c n Z 3.3X$.9.` ` N.{.l 0X0X0X0X0X0X",
"0X0X0X0X0X0X0Xy I.#./ ` ` f.w.m $.` d.9X-.0.! N.{.l 0X0X0X0X0X0X",
"0X0X0X0X0X0X0Xy I.#./ ` I s.e R ` ` y.Q.6X0.` N.{.l 0X0X0X0X0X0X",
"0X0X0X0X0X0X0Xi I.#.! ` I U.t K ` ` ! T.7Xq.` N.{.l 0X0X0X0X0X0X",
"0X0X0X0X0X0X0Xy I.#.H ` >.!.r r.I J a.-X5Xq.` N.{.l 0X0X0X0X0X0X",
"0X0X0X0X0X0X0Xy I.#./ Z 5.(.8 i.U.Y.).8X:.m ` N.{.l 0X0X0X0X0X0X",
"0X0X0X0X0X0X0Xi I.#./ Z 5./.8 K M.C.4X;.Z ` ! N.{.l 0X0X0X0X0X0X",
"0X0X0X0X0X0X0Xy I.#.B H 5.<X0 K !  .H H ` ` ! N.}.k 0X0X0X0X0X0X",
"0X0X0X0X0X0X0Xy I.%.H Z 5..X8 ! ` ` ` ` ` ` ` N.}.l 0X0X0X0X0X0X",
"0X0X0X0X0X0X0Xy I.#.` H 5..Xu.U ` ` ` ` ` ` ! N.}.l 0X0X0X0X0X0X",
"0X0X0X0X0X0X0Xu I.#.H H 5.XXp.U ` ` ` ` ` ` ` N.}.l 0X0X0X0X0X0X",
"0X0X0X0X0X0X0X1 >X=.R H 5.~.e.! ` ` ` ` ` ` #.C.`.d 0X0X0X0X0X0X",
"0X0X0X0X0X0X0X#  XG.g.m 1.8.Z ! ` ` ` ` ` ` b.1X2 0X0X0X0X0X0X0X",
"0X0X0X0X0X0X0X0X4 =Xl.t.1.2XZ ` ` ` ` ` B k.L.`.+ 0X0X0X0X0X0X0X",
"0X0X0X0X0X0X0X0X0Xp OXF.D.:.H ` ` ` H ` k.K.[.& 0X0X0X0X0X0X0X0X",
"0X0X0X0X0X0X0X0X0X0X5 &XZ.g.` ! ` ! #.D.:XW.= 0X0X0X0X0X0X0X0X0X",
"0X0X0X0X0X0X0X0X0X0X0X< ].^.F.*.#.h.H.&Xw $ 0X0X0X0X0X0X0X0X0X0X",
"0X0X0X0X0X0X0X0X0X0X0X0X% p +XP.A.oXE., 0X0X0X0X0X0X0X0X0X0X0X0X",
"0X0X0X0X0X0X0X0X0X0X0X0X0X0X# 3 a - . 0X0X0X0X0X0X0X0X0X0X0X0X0X",
"0X0X0X0X0X0X0X0X0X0X0X0X0X0X0X0X0X0X0X0X0X0X0X0X0X0X0X0X0X0X0X0X",
"0X0X0X0X0X0X0X0X0X0X0X0X0X0X0X0X0X0X0X0X0X0X0X0X0X0X0X0X0X0X0X0X",
"0X0X0X0X0X0X0X0X0X0X0X0X0X0X0X0X0X0X0X0X0X0X0X0X0X0X0X0X0X0X0X0X",
"0X0X0X0X0X0X0X0X0X0X0X0X0X0X0X0X0X0X0X0X0X0X0X0X0X0X0X0X0X0X0X0X"
};
